<?xml version="1.0" encoding="utf-8"?>
<!-- Generator: Adobe Illustrator 25.4.1, SVG Export Plug-In . SVG Version: 6.00 Build 0)  -->
<svg version="1.1" id="INDXDB" xmlns="http://www.w3.org/2000/svg" xmlns:xlink="http://www.w3.org/1999/xlink" x="0px" y="0px"
	 viewBox="0 0 979.8 327.2" style="enable-background:new 0 0 979.8 327.2;" xml:space="preserve">
<style type="text/css">
	.st0{fill:#FFFFFF;}
	.st1{fill:#E44D26;}
</style>
<g id="B">
	<path class="st0" d="M975.1,82.8v10.7c0,30.8-9.4,50.4-30.4,60.3c25.2,9.8,35.1,32.5,35.1,64.1v24.4c0,46.2-24.4,71-71.4,71h-74V14
		h71C954.1,14,975.1,36.6,975.1,82.8z M881.4,56.7v79.1h18.4c17.5,0,28.2-7.7,28.2-31.6V87.5c0-21.4-7.3-30.8-23.9-30.8H881.4z
		 M881.4,178.6v91.9h26.9c15.8,0,24.4-7.3,24.4-29.5v-26.1c0-27.8-9-36.3-30.4-36.3H881.4z"/>
</g>
<path id="D_00000103944101413326701990000017611968879979410820_" class="st1" d="M580.2,163.2l54.6,150
	c58.7,4.7,117.5,9.3,176.2,14c0-109.1,0-218.1,0-327.2c-58.7,4.7-117.5,9.3-176.2,14L580.2,163.2z M627.1,163.6L627.1,163.6
	l41.6-102.7l95.4-8.8v223l-95.4-8.8L627.1,163.6z"/>
<polygon id="X" class="st0" points="452.2,313.2 506.8,163.2 452.5,14 502.4,14 531.8,94.7 561.2,14 611.1,14 556.7,163.2 
	611.3,313.2 561.4,313.2 531.8,231.8 502.1,313.2 "/>
<path id="D" class="st1" d="M483.3,163.6L483.3,163.6L483.3,163.6L428.8,14C370.1,9.3,311.3,4.7,252.6,0c0,54.5,0,109.1,0,163.6
	c0,0,0,0,0,0c0,54.5,0,109.1,0,163.6c58.7-4.7,117.5-9.3,176.2-14L483.3,163.6L483.3,163.6L483.3,163.6z M394.9,266.3l-95.4,7.6
	V163.6v0V53.3l95.4,7.6l41.6,102.7L394.9,266.3z"/>
<polygon id="N" class="st0" points="182.3,14 182.3,184.4 120.2,14 70.3,14 70.4,14 70.3,14 70.3,313.2 117.2,313.2 117.2,142.8 
	179.3,313.2 182.3,313.2 229.2,313.2 229.2,14 "/>
<path id="I_00000042010742297828982060000013178541236772560811_" class="st0" d="M0,14h46.9v299.2H0V14z"/>
</svg>
